<svg width="492" height="550" viewBox="0 0 492 550" fill="none" xmlns="http://www.w3.org/2000/svg">
<path d="M203 243L196 223C186.362 255.239 180.237 288.425 177.733 321.981L176.601 337.147C176.54 337.964 176.983 338.735 177.719 339.094L185.97 343.114C192.57 346.329 199.815 348 207.157 348C214.937 348 222.603 346.123 229.504 342.529L237.901 338.156C241.125 336.477 244.936 336.349 248.265 337.809L261.571 343.645C268.119 346.517 275.192 348 282.342 348C290.018 348 297.597 346.291 304.53 342.998L312.713 339.111C313.483 338.745 313.937 337.931 313.843 337.084L310.394 306.047C307.469 279.724 302.462 253.674 295.419 228.143L294 223L285.5 243V223L268 219L261.602 216.697C249.657 212.396 236.518 212.836 224.887 217.925C220.979 219.634 216.866 220.833 212.652 221.492L203 223V243Z" fill="#FEFEFD"/>
<path d="M260.368 344H223.632L212.993 335.034C202.829 326.468 205.136 310.219 217.284 304.821L220.336 303.465C222.509 302.499 224.861 302 227.239 302H256.811C259.157 302 261.477 302.486 263.627 303.426L266.763 304.799C279.035 310.17 281.35 326.584 271.043 335.14L260.368 344Z" fill="#161719"/>
<path d="M262.925 330.564L253.993 337L259.667 329.059C260.396 328.038 261.386 327.233 262.533 326.726L267.569 324.5L264.823 323.362C261.912 322.156 258.679 321.967 255.648 322.826L244.459 325.996C243.292 326.326 242.06 326.348 240.882 326.059L229.158 323.18C224.853 322.123 220.297 323.171 216.883 326L221.011 326.977C222.446 327.317 223.737 328.101 224.7 329.219L232.27 338L221.951 330.247C221.293 329.753 220.553 329.379 219.765 329.141L215.314 327.8C212.753 327.028 211 324.669 211 321.994C211 314.818 216.818 309 223.994 309H259.224C266.832 309 273 315.168 273 322.776C273 326.039 270.555 328.784 267.314 329.161L266.209 329.29C265.024 329.428 263.893 329.866 262.925 330.564Z" fill="#05487C"/>
<path d="M131 162L204.069 197.164C208.559 199.325 213.645 199.918 218.513 198.847C228.725 196.6 236 187.551 236 177.095V54.5L227.123 49.9228C211.994 42.1221 195.025 38.5934 178.041 39.7163C155.751 41.19 134.723 50.585 118.753 66.2049L75 109L0 179L8.81659 173.71C27.7867 162.328 48.6352 154.421 70.3823 150.362L75 149.5L68.1475 154.259C60.7825 159.373 54.453 165.837 49.4936 173.307L17.5 221.5L66 198.5L56.6674 212.296C47.9931 225.119 45.359 241.093 49.4571 256.022L50 258L81 225.5L65.8826 245.971C60.1132 253.784 57 263.241 57 272.953C57 284.544 61.4312 295.696 69.3862 304.126L90.5 326.5L87.3137 314.593C83.2216 299.302 84.3428 283.083 90.5 268.5L95.2608 281.195C101.828 298.708 114.952 312.977 131.854 320.984L143.5 326.5V321.608C143.5 313.075 146.118 304.748 151 297.75C155.882 290.752 158.5 282.425 158.5 273.892V272.014C158.5 260.708 154.481 249.769 147.161 241.152L142.15 235.253C127.64 218.171 122.369 195.087 128.026 173.4L131 162Z" fill="white"/>
<path d="M133 171.5L197.41 202.497C207.18 207.199 218.63 206.833 228.079 201.518C238.532 195.638 245 184.578 245 172.586V46L233.207 41.9461C219.869 37.3613 205.752 35.4792 191.679 36.4096C166.396 38.0812 142.544 48.7379 124.43 66.4553L84 106L9 176L17.8166 170.71C36.7867 159.328 57.6352 151.421 79.3823 147.362L84 146.5L77.1475 151.259C69.7825 156.373 63.453 162.837 58.4936 170.307L26.5 218.5L75 195.5L65.6674 209.296C56.9931 222.119 54.359 238.093 58.4571 253.022L59 255L90 222.5L74.8826 242.971C69.1132 250.784 66 260.241 66 269.953C66 281.544 70.4312 292.696 78.3862 301.126L99.5 323.5L96.3137 311.593C92.2216 296.302 93.3428 280.083 99.5 265.5L104.261 278.195C110.828 295.708 123.952 309.977 140.854 317.984L152.5 323.5V318.608C152.5 310.075 155.118 301.748 160 294.75C164.882 287.752 167.5 279.425 167.5 270.892V269.014C167.5 257.708 163.481 246.769 156.161 238.152L149.162 229.913C135.715 214.082 129.759 193.214 132.825 172.671L133 171.5Z" fill="#02497D"/>
<path d="M360.5 162L287.247 197.253C282.877 199.356 277.926 199.922 273.195 198.86C263.193 196.615 256.161 187.63 256.386 177.382L259 58L263.8 54.6898C279.472 43.8811 298.336 38.6834 317.333 39.9394C337.446 41.2691 356.42 49.7464 370.829 63.8405L417 109L492 179L483.183 173.71C464.213 162.328 443.365 154.421 421.618 150.362L417 149.5L423.853 154.259C431.217 159.373 437.547 165.837 442.506 173.307L474.5 221.5L426 198.5L435.333 212.296C444.007 225.119 446.641 241.093 442.543 256.022L442 258L411 225.5L426.117 245.971C431.887 253.784 435 263.241 435 272.953C435 284.544 430.569 295.696 422.614 304.126L401.5 326.5L404.686 314.593C408.778 299.302 407.657 283.083 401.5 268.5L396.739 281.195C390.172 298.708 377.048 312.977 360.146 320.984L348.5 326.5V321.608C348.5 313.075 345.882 304.748 341 297.75C336.118 290.752 333.5 282.425 333.5 273.892V272.014C333.5 260.708 337.519 249.769 344.839 241.152L349.732 235.392C364.296 218.247 369.474 195.026 363.575 173.317L360.5 162Z" fill="white"/>
<path d="M354 167.5L289.392 198.593C279.746 203.235 268.442 202.873 259.112 197.626C248.577 191.699 242.159 180.456 242.413 168.371L245 45.5L251.053 42.4734C266.08 34.9602 282.836 31.5842 299.599 32.6925C322.121 34.1816 343.369 43.6745 359.505 59.4571L403 102L478 172L469.183 166.71C450.213 155.328 429.365 147.421 407.618 143.362L403 142.5L409.853 147.259C417.217 152.373 423.547 158.837 428.506 166.307L460.5 214.5L412 191.5L421.333 205.296C430.007 218.119 432.641 234.093 428.543 249.022L428 251L397 218.5L412.117 238.971C417.887 246.784 421 256.241 421 265.953C421 277.544 416.569 288.696 408.614 297.126L387.5 319.5L390.686 307.593C394.778 292.302 393.657 276.083 387.5 261.5L382.739 274.195C376.172 291.708 363.048 305.977 346.146 313.984L334.5 319.5V314.608C334.5 306.075 331.882 297.748 327 290.75C322.118 283.752 319.5 275.425 319.5 266.892V265.014C319.5 253.708 323.519 242.769 330.839 234.152L337.838 225.913C351.285 210.082 357.241 189.214 354.175 168.671L354 167.5Z" fill="#02497D"/>
<path d="M212.579 488.509L230.473 507.207C241.276 518.497 246.586 533.955 245 549.5L222.214 523.916C218.413 519.648 214.215 515.753 209.676 512.281L191 498L184.092 493.956C175.099 488.692 167.089 481.906 160.418 473.901L158 471L153.495 464.48C144.056 450.818 139 434.606 139 418L140.084 422.878C142.626 434.319 148.798 444.632 157.679 452.279C160.552 454.753 163.675 456.919 166.999 458.743L190.855 471.835C198.904 476.252 206.23 481.875 212.579 488.509Z" fill="white"/>
<path d="M123.056 439.225L131.028 474.957L117.11 447.493C114.701 442.738 111.873 438.206 108.661 433.951L98.043 419.886L96.3201 418.144C89.0975 410.84 83.1785 402.354 78.8195 393.053L78.1603 391.647L74.3126 381.54C69.7744 369.619 67.8219 356.87 68.5845 344.137L68.9521 338L69.724 347.146C70.4718 356.007 73.4538 364.534 78.3915 371.93C80.5656 375.186 83.0966 378.189 85.9373 380.884L95.3115 389.777C103.059 397.126 109.437 405.796 114.147 415.381L115.991 419.132C119.133 425.527 121.504 432.271 123.056 439.225Z" fill="white"/>
<path d="M277.802 486.923L257.469 506.614C246.022 517.699 241.281 534.006 245 549.5L267.08 524.266C271.017 519.766 275.392 515.671 280.141 512.039L298.5 498L305.408 493.956C314.401 488.692 322.411 481.906 329.082 473.901L331.5 471L336.005 464.48C345.444 450.818 350.5 434.606 350.5 418L349.416 422.878C346.874 434.319 340.702 444.632 331.821 452.279C328.948 454.753 325.825 456.919 322.501 458.743L297.114 472.675C290.07 476.541 283.575 481.333 277.802 486.923Z" fill="white"/>
<path d="M366.444 439.225L358.472 474.957L372.39 447.493C374.799 442.738 377.627 438.206 380.839 433.951L391.457 419.886L393.18 418.144C400.402 410.84 406.321 402.354 410.68 393.053L411.34 391.647L415.187 381.54C419.726 369.619 421.678 356.87 420.915 344.137L420.548 338L419.776 347.146C419.028 356.007 416.046 364.534 411.109 371.93C408.934 375.186 406.403 378.189 403.563 380.884L394.188 389.777C386.441 397.126 380.063 405.796 375.353 415.381L373.509 419.132C370.367 425.527 367.996 432.271 366.444 439.225Z" fill="white"/>
<path d="M234.943 502.851L245.443 530.372L224.171 506.382C220.993 502.798 217.534 499.474 213.827 496.441L194.552 480.669L187.781 476.4C178.966 470.842 171.184 463.797 164.78 455.576L162.459 452.597L158.171 445.932C149.187 431.966 144.668 415.597 145.215 399L146.138 403.911C148.302 415.429 154.131 425.94 162.755 433.876C165.545 436.443 168.595 438.711 171.857 440.643L193.39 453.4C202.517 458.807 210.616 465.785 217.313 474.012L220.652 478.114C226.703 485.546 231.527 493.897 234.943 502.851Z" fill="#02497D"/>
<path d="M122.056 420.225L130.028 455.957L116.11 428.493C113.701 423.738 110.873 419.206 107.661 414.951L97.043 400.886L95.3201 399.144C88.0975 391.84 82.1785 383.354 77.8195 374.053L77.1603 372.647L73.3126 362.54C68.7744 350.619 66.8219 337.87 67.5845 325.137L67.9521 319L68.724 328.146C69.4718 337.007 72.4538 345.534 77.3915 352.93C79.5656 356.186 82.0966 359.189 84.9373 361.884L94.3115 370.777C102.059 378.126 108.437 386.796 113.147 396.381L114.991 400.132C118.133 406.527 120.504 413.271 122.056 420.225Z" fill="#02497D"/>
<path d="M256.4 499.84L245 527L267.051 503.724C270.345 500.247 273.911 497.038 277.716 494.129L297.5 479L304.408 474.956C313.401 469.692 321.411 462.906 328.082 454.901L330.5 452L335.005 445.48C344.444 431.818 349.5 415.606 349.5 399L348.416 403.878C345.874 415.319 339.702 425.632 330.821 433.279C327.948 435.753 324.825 437.919 321.501 439.743L299.56 451.784C290.26 456.888 281.935 463.595 274.971 471.597L271.499 475.587C265.207 482.816 260.11 491.004 256.4 499.84Z" fill="#02497D"/>
<path d="M365.444 420.225L357.472 455.957L371.39 428.493C373.799 423.738 376.627 419.206 379.839 414.951L390.457 400.886L392.18 399.144C399.402 391.84 405.321 383.354 409.68 374.053L410.34 372.647L414.187 362.54C418.726 350.619 420.678 337.87 419.915 325.137L419.548 319L418.776 328.146C418.028 337.007 415.046 345.534 410.109 352.93C407.934 356.186 405.403 359.189 402.563 361.884L393.188 370.777C385.441 378.126 379.063 386.796 374.353 396.381L372.509 400.132C369.367 406.527 366.996 413.271 365.444 420.225Z" fill="#02497D"/>
<path d="M183 353L186.017 359.993C191.286 372.209 198.929 383.259 208.5 392.5V367L219.5 376.5L222 370.5L228.5 378.5L231.5 370.5L237.5 378.5L241.5 370.5L248 378.5L250.5 370.5L256 378.5L261.5 370.5L265 376.5L274 370.5V392.5C283.27 383.23 290.945 372.493 296.715 360.722L300.5 353L296.664 354.069C278.989 358.995 260.672 361.219 242.333 360.668L224.996 360.146C210.734 359.718 196.601 357.312 183 353Z" fill="white"/>
<path d="M221.029 441.033L220.815 441.394C220.616 441.728 220.378 442.036 220.105 442.312C218.14 444.295 214.899 444.171 213.092 442.043L208.634 436.792C206.933 434.789 206 432.247 206 429.62V412L214.129 424.31L220.255 431.586C222.497 434.25 222.808 438.04 221.029 441.033Z" fill="white"/>
<path d="M224.212 439.914L223.885 440.528C222.729 442.695 224.089 445.35 226.522 445.679L238.642 447.317C239.543 447.438 240.457 447.437 241.357 447.312L252.392 445.779C255.253 445.382 256.991 442.416 255.941 439.726C255.206 437.842 252.905 437.14 251.243 438.292L249.819 439.279C249.611 439.423 249.454 439.627 249.367 439.865L249.068 440.689C248.694 441.718 247.184 441.522 247.085 440.432C247.037 439.904 246.594 439.5 246.064 439.5H243.969C242.504 439.5 241.209 440.461 240.805 441.869C240.39 443.317 240 444.75 240 445C240 445.726 238.96 444.56 238.894 443.837L238.811 442.916C238.635 440.981 237.012 439.5 235.07 439.5H233.86C233.321 439.5 232.816 439.763 232.507 440.205L231.9 441.072C231.16 442.128 229.5 441.605 229.5 440.315C229.5 439.816 229.218 439.359 228.771 439.135L227.947 438.724C226.585 438.043 224.929 438.571 224.212 439.914Z" fill="white"/>
<path d="M257.971 441.033L258.185 441.394C258.384 441.728 258.622 442.036 258.895 442.312C260.86 444.295 264.101 444.171 265.908 442.043L270.366 436.792C272.067 434.789 273 432.247 273 429.62V412L264.871 424.31L258.745 431.586C256.503 434.25 256.192 438.04 257.971 441.033Z" fill="white"/>
<path d="M254.788 439.914L255.115 440.528C256.271 442.695 254.911 445.35 252.478 445.679L240.358 447.317C239.457 447.438 238.543 447.437 237.643 447.312L226.608 445.779C223.747 445.382 222.009 442.416 223.059 439.726C223.794 437.842 226.095 437.14 227.757 438.292L229.181 439.279C229.389 439.423 229.546 439.627 229.633 439.865L229.932 440.689C230.306 441.718 231.816 441.522 231.915 440.432C231.963 439.904 232.406 439.5 232.936 439.5H235.031C236.496 439.5 237.791 440.461 238.195 441.869C238.61 443.317 239 444.75 239 445C239 445.726 240.04 444.56 240.106 443.837L240.189 442.916C240.365 440.981 241.988 439.5 243.93 439.5H245.14C245.679 439.5 246.184 439.763 246.493 440.205L247.1 441.072C247.84 442.128 249.5 441.605 249.5 440.315C249.5 439.816 249.782 439.359 250.229 439.135L251.053 438.724C252.415 438.043 254.071 438.571 254.788 439.914Z" fill="white"/>
<path d="M223.092 389.202L214.649 381.993L215.081 400.216C215.242 407 217.504 413.566 221.555 419.01L222.041 419.662C226.11 425.13 232.336 428.581 239.13 429.134C246.524 429.735 253.773 426.839 258.718 421.309L259.1 420.882C262.711 416.842 264.903 411.734 265.342 406.334L266.976 386.25L262.085 390.869L258.626 384.066L255.485 391.837L250.652 383.417L249.128 389.815L246 383.417L240.319 413.051L233.748 381.541L231.564 389.891L225.613 382.885L223.092 389.202Z" fill="#BB1F35"/>
<path d="M328 190L297.227 208.758L299.428 209.344C305.069 210.846 311.352 209.741 316.697 206.308C321.376 203.302 324.973 198.743 326.779 193.527L328 190Z" fill="white"/>
<path d="M155.82 192.222L191.642 207.676L190.361 208.408C184.539 211.737 177.078 211.881 170.396 208.793C165.433 206.5 161.306 202.607 158.791 197.847L155.82 192.222Z" fill="white"/>
<path d="M305.025 218.654L296.5 215L301.456 218.717C306.935 222.826 314.345 223.246 320.253 219.783L325 217L316.242 219.416C312.525 220.441 308.569 220.173 305.025 218.654Z" fill="white"/>
<path d="M174.24 224.73L165 223.932L170.871 225.908C177.362 228.093 184.53 226.17 189.055 221.03L192.691 216.899L185.132 221.938C181.923 224.077 178.082 225.061 174.24 224.73Z" fill="white"/>
<path d="M299 190C308.315 179.072 307 170.5 304.376 158.944L301.966 168.904C299.166 180.469 291.112 190.055 280.202 194.805L267 200.553C277.359 203.371 289.685 200.928 299 190Z" fill="white"/>
<path d="M241.11 155.117C233.599 142.879 225.041 141.477 213.24 140.398L221.966 145.771C232.098 152.01 238.722 162.635 239.865 174.479L241.247 188.812C247.131 179.832 248.621 167.355 241.11 155.117Z" fill="#151618"/>
<path d="M241.11 155.117C233.599 142.879 225.041 141.477 213.24 140.398L221.966 145.771C232.098 152.01 238.722 162.635 239.865 174.479L241.247 188.812C247.131 179.832 248.621 167.355 241.11 155.117Z" fill="#151618"/>
<path d="M242.11 128.117C234.599 115.879 226.041 114.477 214.24 113.398L222.966 118.771C233.098 125.01 239.722 135.635 240.865 147.479L242.247 161.812C248.131 152.832 249.621 140.355 242.11 128.117Z" fill="#151618"/>
<path d="M248.059 155.117C255.571 142.879 264.128 141.477 275.93 140.398L267.204 145.771C257.072 152.01 250.447 162.635 249.305 174.479L247.922 188.812C242.039 179.832 240.548 167.355 248.059 155.117Z" fill="#151618"/>
<path d="M248.059 130.117C255.571 117.879 264.128 116.477 275.93 115.398L267.204 120.771C257.072 127.01 250.447 137.635 249.305 149.479L247.922 163.812C242.039 154.832 240.548 142.355 248.059 130.117Z" fill="#151618"/>
<path d="M415.5 257.5C418.194 271.604 412.639 283.367 407.823 291.508L409.674 289.302C425.309 270.674 419.663 242.356 398.078 231.149L393.735 228.893C393.124 228.544 392.543 228.243 392 227.993L393.735 228.893C401.159 233.138 413.011 244.468 415.5 257.5Z" fill="#151618"/>
<path d="M330.724 248.318C338.157 236.033 350.155 231.007 359.18 228.177L356.329 228.578C332.246 231.965 317.499 256.789 326.044 279.559L327.763 284.141C327.984 284.81 328.214 285.422 328.45 285.972L327.763 284.141C325.085 276.019 323.855 259.67 330.724 248.318Z" fill="#151618"/>
<path d="M423.856 219.461C428.224 232.66 427.291 238.752 425.601 246.545L427.516 239.609C431.963 223.502 425.366 206.38 411.261 197.421L409.685 196.419C409.116 196.007 408.554 195.651 408 195.349L409.685 196.419C414.589 199.972 419.941 207.634 423.856 219.461Z" fill="#151618"/>
<path d="M72.6079 261.512C69.914 275.616 75.469 287.378 80.2845 295.52L78.4336 293.314C62.7987 274.685 68.4453 246.368 90.0296 235.161L94.3731 232.905C94.9839 232.556 95.5647 232.255 96.1079 232.005L94.3731 232.905C86.9485 237.15 75.0971 248.48 72.6079 261.512Z" fill="#151618"/>
<path d="M157.384 252.33C149.951 240.045 137.953 235.019 128.927 232.189L131.778 232.59C155.862 235.977 170.609 260.801 162.064 283.571L160.345 288.153C160.124 288.822 159.894 289.434 159.658 289.984L160.345 288.153C163.023 280.031 164.253 263.682 157.384 252.33Z" fill="#151618"/>
<path d="M64.2523 223.473C59.8835 236.672 60.8174 242.764 62.507 250.558L60.592 243.621C56.1453 227.514 62.7421 210.392 76.8466 201.433L78.4231 200.431C78.9917 200.019 79.5543 199.663 80.1079 199.361L78.4231 200.431C73.5192 203.984 68.1672 211.647 64.2523 223.473Z" fill="#151618"/>
<path d="M310.987 146.76L305.043 151.676C300.38 155.532 296.39 160.135 293.234 165.299C290.614 169.586 288.743 174.288 287.7 179.203L287 182.5L286.599 179.389C285.554 171.296 286.824 163.072 290.26 155.67L292.825 150.145C296.178 142.924 301.853 137.033 308.944 133.412C317.01 129.293 326.343 128.399 335.045 130.913L344 133.5L340.755 133.906C329.812 135.273 319.486 139.733 310.987 146.76Z" fill="white"/>
<path d="M188 194C178.685 183.072 180 174.5 182.624 162.944L185.034 172.904C187.834 184.469 195.888 194.055 206.798 198.805L220 204.553C209.641 207.371 197.315 204.928 188 194Z" fill="white"/>
<path d="M176.013 150.76L181.957 155.676C186.62 159.532 190.61 164.135 193.766 169.299C196.386 173.586 198.257 178.288 199.3 183.203L200 186.5L200.401 183.389C201.446 175.296 200.176 167.072 196.74 159.67L194.175 154.145C190.822 146.924 185.147 141.033 178.056 137.412C169.99 133.293 160.657 132.399 151.955 134.913L143 137.5L146.245 137.906C157.188 139.273 167.514 143.733 176.013 150.76Z" fill="white"/>
<path d="M104.319 24.6387L117 35.3413L106.098 29.9832C101.385 27.6668 96.0024 27.0998 90.9101 28.3832L100.263 41.4074C102.112 43.9826 103.678 46.75 104.932 49.6616L110.326 62.1796L100.587 53.8695C97.3881 51.1403 93.8148 48.8836 89.9759 47.1683L81.2068 43.2503C77.58 41.6298 73.7505 40.5079 69.8226 39.9153L56.5106 37.9065C54.0073 37.5288 51.4483 37.836 49.1055 38.7956C42.2517 41.6027 38.7638 49.2569 41.1424 56.271L42.0561 58.9653C42.6661 60.7642 43.5725 62.4485 44.7378 63.9485L51.4719 72.6168L50.5868 72.5261C44.7635 71.9299 39.1178 70.1776 33.9802 67.372L29.0225 64.6647L36.0814 71.4525C40.6257 75.8223 46.056 79.1646 52.0046 81.2529L59.4732 83.8748C62.6232 84.9806 65.8887 85.7244 69.2069 86.0917L86.6629 88.024L67.4464 90.5939C60.5528 91.5158 53.538 90.6518 47.0742 88.0847C40.4168 85.4406 34.5771 81.0825 30.1479 75.4527L22.6334 65.9011C20.4291 63.0992 18.5734 60.0397 17.1072 56.79L12.4501 46.4674C10.2471 41.5844 10.143 36.0116 12.1621 31.0498C14.0291 26.4617 17.5672 22.7528 22.0622 20.6717L36.2337 14.1104C40.698 12.0434 45.4773 10.7398 50.3727 10.2538L54.8051 9.81367C60.2213 9.27589 65.6904 9.74771 70.9345 11.2052L87.7222 15.8708C93.8206 17.5657 99.4815 20.5564 104.319 24.6387Z" fill="#02497D"/>
<path d="M88.8894 29.1133L98 38.5L88.8316 32.9989C85.12 30.772 80.637 30.2271 76.5 31.5L84.3469 44.8397C85.779 47.2742 86.9733 49.841 87.9134 52.5045L92.5 65.5L85.206 57.9021C82.0871 54.6533 78.488 51.9026 74.5344 49.746L69.4849 46.9917C65.8514 45.0098 61.926 43.618 57.8556 42.8681L49.1292 41.2606C46.4494 40.767 43.6818 41.1591 41.2446 42.3777C35.8751 45.0624 33.1596 51.1745 34.7663 56.9587L36.2342 62.2432C36.7419 64.071 37.5177 65.8135 38.5361 67.4139L44 76C38.739 75.3424 33.7033 73.4689 29.2918 70.5279L25.5 68L30.3142 73.6515C34.7119 78.8139 40.2432 82.89 46.4765 85.5614L48.9951 86.6408C52.6482 88.2064 56.4966 89.2698 60.4352 89.8021L73 91.5L58.0968 93.9332C51.8517 94.9528 45.4441 94.0184 39.7503 91.2577C34.6812 88.8 30.3859 84.9953 27.3342 80.26L20.1139 69.0561C18.3765 66.3601 16.9391 63.4823 15.8273 60.4738L11.6161 49.0789C9.92278 44.4969 9.84179 39.4746 11.3865 34.8404C13.0687 29.7938 16.5637 25.5509 21.1948 22.9334L30.2425 17.8194C34.7036 15.298 39.6187 13.6826 44.7058 13.066C50.4945 12.3643 56.3669 12.9727 61.8889 14.8462L71.4529 18.0912C78.0563 20.3316 84.0327 24.1095 88.8894 29.1133Z" fill="white"/>
<path d="M396.181 24.6387L383.5 35.3413L394.402 29.9832C399.115 27.6668 404.498 27.0998 409.59 28.3832L400.237 41.4074C398.388 43.9826 396.822 46.75 395.568 49.6616L390.174 62.1796L399.913 53.8695C403.112 51.1403 406.685 48.8836 410.524 47.1683L419.293 43.2503C422.92 41.6298 426.749 40.5079 430.677 39.9153L443.989 37.9065C446.493 37.5288 449.052 37.836 451.395 38.7956C458.248 41.6027 461.736 49.2569 459.358 56.271L458.444 58.9653C457.834 60.7642 456.928 62.4485 455.762 63.9485L449.028 72.6168L449.913 72.5261C455.736 71.9299 461.382 70.1776 466.52 67.372L471.478 64.6647L464.419 71.4525C459.874 75.8223 454.444 79.1646 448.495 81.2529L441.027 83.8748C437.877 84.9806 434.611 85.7244 431.293 86.0917L413.837 88.024L433.054 90.5939C439.947 91.5158 446.962 90.6518 453.426 88.0847C460.083 85.4406 465.923 81.0825 470.352 75.4527L477.867 65.9011C480.071 63.0992 481.927 60.0397 483.393 56.79L488.05 46.4674C490.253 41.5844 490.357 36.0116 488.338 31.0498C486.471 26.4617 482.933 22.7528 478.438 20.6717L464.266 14.1104C459.802 12.0434 455.023 10.7398 450.127 10.2538L445.695 9.81367C440.279 9.27589 434.81 9.74771 429.566 11.2052L412.778 15.8708C406.679 17.5657 401.018 20.5564 396.181 24.6387Z" fill="#02497D"/>
<path d="M411.611 29.1133L402.5 38.5L411.668 32.9989C415.38 30.772 419.863 30.2271 424 31.5L416.153 44.8397C414.721 47.2742 413.527 49.841 412.587 52.5045L408 65.5L415.294 57.9021C418.413 54.6533 422.012 51.9026 425.966 49.746L431.015 46.9917C434.649 45.0098 438.574 43.618 442.644 42.8681L451.371 41.2606C454.051 40.767 456.818 41.1591 459.255 42.3777C464.625 45.0624 467.34 51.1745 465.734 56.9587L464.266 62.2432C463.758 64.071 462.982 65.8135 461.964 67.4139L456.5 76C461.761 75.3424 466.797 73.4689 471.208 70.5279L475 68L470.186 73.6515C465.788 78.8139 460.257 82.89 454.024 85.5614L451.505 86.6408C447.852 88.2064 444.003 89.2698 440.065 89.8021L427.5 91.5L442.403 93.9332C448.648 94.9528 455.056 94.0184 460.75 91.2577C465.819 88.8 470.114 84.9953 473.166 80.26L480.386 69.0561C482.123 66.3601 483.561 63.4823 484.673 60.4738L488.884 49.0789C490.577 44.4969 490.658 39.4746 489.113 34.8404C487.431 29.7938 483.936 25.5509 479.305 22.9334L470.257 17.8194C465.796 15.298 460.881 13.6826 455.794 13.066C450.005 12.3643 444.133 12.9727 438.611 14.8462L429.047 18.0912C422.444 20.3316 416.467 24.1095 411.611 29.1133Z" fill="white"/>
<path d="M201.528 441.335L200 440L200.419 440.585C207.46 450.425 218.242 456.931 230.229 458.573L234.348 459.137C238.524 459.709 242.761 459.679 246.928 459.046L249.207 458.699C260.597 456.969 270.855 450.84 277.776 441.629L279 440L276.397 442.166C270.235 447.291 262.79 450.636 254.866 451.84L246.928 453.046C242.761 453.679 238.524 453.709 234.348 453.137L224.5 451.788C215.986 450.622 208 446.988 201.528 441.335Z" fill="white"/>
<path d="M270.301 314.446L270 314.961L274.5 319C280.751 306.195 284 292.133 284 277.883V272L282.083 282.557C280.043 293.792 276.056 304.584 270.301 314.446Z" fill="#161719"/>
<path d="M212.699 314.446L213 314.961L208.5 319C202.249 306.195 199 292.133 199 277.883V272L200.917 282.557C202.957 293.792 206.944 304.584 212.699 314.446Z" fill="#161719"/>
<path d="M224.97 40.2877L245.378 46.4331L227.091 37.2202C214.961 31.1095 201.351 28.5541 187.831 29.8492L144.5 33.9999L176.071 45.0531L197 50L214.79 57.0189L211.953 54.0269C205.116 46.8141 196.43 41.616 186.842 38.9989L193.841 37.9803C204.261 36.4639 214.887 37.2515 224.97 40.2877Z" fill="white"/>
<path d="M263.282 40.4062L242.874 46.5516L261.162 37.3386C273.291 31.2279 286.901 28.6725 300.421 29.9676L343.752 34.1183L312.181 45.1715L291.252 50.1184L273.463 57.1373L276.299 54.1453C283.137 46.9325 291.823 41.7345 301.41 39.1173L294.411 38.0987C283.991 36.5823 273.365 37.3699 263.282 40.4062Z" fill="white"/>
</svg>
