<svg width="988" height="76" viewBox="0 0 988 76" fill="none" xmlns="http://www.w3.org/2000/svg">
<path d="M23.336 0.447994H34.664C35.176 0.447994 35.56 0.639996 35.816 1.024C36.136 1.408 36.232 1.856 36.104 2.368L35.048 6.112C34.92 6.624 34.6 7.072 34.088 7.456C33.64 7.84 33.16 8.032 32.648 8.032H21.32C20.808 8.032 20.424 7.84 20.168 7.456C19.912 7.072 19.848 6.624 19.976 6.112L21.032 2.368C21.288 1.088 22.056 0.447994 23.336 0.447994ZM130.952 0.447994L122.792 30.688L113.288 38.272L118.76 45.76L110.696 76H37.064C36.552 76 36.168 75.808 35.912 75.424C35.656 75.04 35.592 74.592 35.72 74.08L36.776 70.336C36.904 69.824 36.808 69.376 36.488 68.992C36.232 68.608 35.848 68.416 35.336 68.416C34.824 68.416 34.408 68.256 34.088 67.936C33.832 67.552 33.768 67.104 33.896 66.592L34.952 62.752C35.272 61.536 34.824 60.928 33.608 60.928H29.768C29.256 60.928 28.872 60.736 28.616 60.352C28.36 59.968 28.296 59.52 28.424 59.008L29.48 55.264C29.608 54.752 29.896 54.304 30.344 53.92C30.792 53.536 31.272 53.344 31.784 53.344H43.112C43.624 53.344 44.136 53.152 44.648 52.768C45.16 52.384 45.48 51.936 45.608 51.424L46.568 47.68C46.696 47.168 46.6 46.72 46.28 46.336C46.024 45.952 45.64 45.76 45.128 45.76H33.8C33.352 45.76 32.968 45.6 32.648 45.28C32.392 44.896 32.328 44.448 32.456 43.936L33.512 40.096C33.832 38.88 34.6 38.272 35.816 38.272H47.144C47.656 38.272 48.168 38.08 48.68 37.696C49.192 37.312 49.512 36.864 49.64 36.352L50.6 32.608C50.728 32.096 50.632 31.648 50.312 31.264C50.056 30.88 49.672 30.688 49.16 30.688C48.648 30.688 48.264 30.496 48.008 30.112C47.816 29.728 47.784 29.28 47.912 28.768L48.872 25.024C49 24.512 48.936 24.064 48.68 23.68C48.424 23.296 48.04 23.104 47.528 23.104H32.456C31.944 23.104 31.528 22.944 31.208 22.624C30.952 22.24 30.888 21.792 31.016 21.28L31.976 17.44C32.296 16.224 33.128 15.616 34.472 15.616H45.8C47.016 15.616 47.784 14.976 48.104 13.696L49.064 9.952C49.384 8.672 48.968 8.032 47.816 8.032H43.976C43.464 8.032 43.08 7.84 42.824 7.456C42.568 7.072 42.504 6.624 42.632 6.112L43.688 2.368C43.752 1.856 44.008 1.408 44.456 1.024C44.968 0.639996 45.48 0.447994 45.992 0.447994H130.952ZM86.6 53.344L88.616 45.76H73.448L71.432 53.344H86.6ZM92.648 30.688L94.76 23.104H79.592L77.48 30.688H92.648ZM11.816 15.616H21.224C22.248 15.616 23.016 15.968 23.528 16.672C24.104 17.376 24.232 18.272 23.912 19.36C23.592 20.448 22.984 21.344 22.088 22.048C21.192 22.752 20.232 23.104 19.208 23.104H9.8C9.288 23.104 8.872 22.944 8.552 22.624C8.296 22.24 8.232 21.792 8.36 21.28L9.32 17.44C9.64 16.224 10.472 15.616 11.816 15.616ZM15.176 30.688H26.504C27.016 30.688 27.4 30.88 27.656 31.264C27.976 31.648 28.072 32.096 27.944 32.608L26.984 36.352C26.856 36.864 26.536 37.312 26.024 37.696C25.512 38.08 25 38.272 24.488 38.272H13.16C12.008 38.272 11.592 37.632 11.912 36.352L12.872 32.608C13.192 31.328 13.96 30.688 15.176 30.688ZM3.656 45.76H20.648C21.672 45.76 22.44 46.144 22.952 46.912C23.528 47.68 23.688 48.576 23.432 49.6C23.112 50.624 22.472 51.52 21.512 52.288C20.616 52.992 19.656 53.344 18.632 53.344H1.64C1.128 53.344 0.744 53.152 0.488 52.768C0.232 52.384 0.168 51.936 0.296 51.424L1.256 47.68C1.384 47.168 1.704 46.72 2.216 46.336C2.664 45.952 3.144 45.76 3.656 45.76ZM18.824 60.928C19.336 60.928 19.72 61.12 19.976 61.504C20.296 61.824 20.392 62.24 20.264 62.752L19.208 66.592C18.888 67.808 18.088 68.416 16.808 68.416H9.32C8.808 68.416 8.392 68.256 8.072 67.936C7.816 67.552 7.752 67.104 7.88 66.592L8.936 62.752C9.256 61.536 10.056 60.928 11.336 60.928H18.824ZM24.392 68.416H28.136C28.648 68.416 29.032 68.608 29.288 68.992C29.608 69.376 29.704 69.824 29.576 70.336L28.52 74.08C28.392 74.592 28.072 75.04 27.56 75.424C27.112 75.808 26.632 76 26.12 76H22.376C21.864 76 21.448 75.808 21.128 75.424C20.872 75.04 20.808 74.592 20.936 74.08L21.992 70.336C22.12 69.824 22.408 69.376 22.856 68.992C23.368 68.608 23.88 68.416 24.392 68.416ZM124.205 76L144.461 0.447994H220.013L199.757 76H169.517L175.565 53.344H160.493L154.445 76H124.205ZM168.653 23.104L166.541 30.688H181.613L183.725 23.104H168.653ZM233.591 0.447994H263.831L249.623 53.344H294.935L288.887 76H213.335L233.591 0.447994ZM301.153 76L321.409 0.447994H396.961L376.705 76H346.465L352.513 53.344H337.441L331.393 76H301.153ZM345.601 23.104L343.489 30.688H358.561L360.673 23.104H345.601ZM420.522 76H390.282L410.538 0.447994H486.09L465.834 76H435.594L449.802 23.104H434.73L420.522 76ZM567.06 30.688H536.82L538.932 23.104H523.86L515.7 53.344H530.772L532.788 45.76H563.028L554.964 76H479.412L499.668 0.447994H575.221L567.06 30.688ZM588.799 0.447994H658.495L652.447 23.104H612.991L610.879 30.688H635.167L631.135 45.76H606.847L604.831 53.344H644.287L638.239 76H568.543L588.799 0.447994ZM709.366 0.447994H713.11C713.622 0.447994 714.006 0.639996 714.262 1.024C714.582 1.408 714.678 1.856 714.55 2.368L713.494 6.112C713.366 6.624 713.046 7.072 712.534 7.456C712.086 7.84 711.606 8.032 711.094 8.032H707.35C706.838 8.032 706.422 7.84 706.102 7.456C705.846 7.072 705.782 6.624 705.91 6.112L706.966 2.368C707.03 1.856 707.318 1.408 707.83 1.024C708.342 0.639996 708.854 0.447994 709.366 0.447994ZM690.262 15.616H701.59C702.742 15.616 703.158 16.224 702.838 17.44L701.878 21.28C701.494 22.496 700.726 23.104 699.574 23.104H688.246C687.734 23.104 687.318 22.944 686.998 22.624C686.742 22.24 686.678 21.792 686.806 21.28L687.766 17.44C688.086 16.224 688.918 15.616 690.262 15.616ZM693.622 30.688H704.95C705.462 30.688 705.846 30.88 706.102 31.264C706.422 31.648 706.518 32.096 706.39 32.608L705.43 36.352C705.302 36.864 704.982 37.312 704.47 37.696C703.958 38.08 703.446 38.272 702.934 38.272H691.606C690.454 38.272 690.038 37.632 690.358 36.352L691.318 32.608C691.638 31.328 692.406 30.688 693.622 30.688ZM682.102 45.76H700.918C701.43 45.76 701.814 45.952 702.07 46.336C702.39 46.72 702.486 47.168 702.358 47.68L701.398 51.424C701.27 51.936 700.95 52.384 700.438 52.768C699.926 53.152 699.414 53.344 698.902 53.344H680.086C679.574 53.344 679.19 53.152 678.934 52.768C678.678 52.384 678.614 51.936 678.742 51.424L679.702 47.68C679.83 47.168 680.15 46.72 680.662 46.336C681.11 45.952 681.59 45.76 682.102 45.76ZM697.27 60.928C697.782 60.928 698.166 61.12 698.422 61.504C698.742 61.824 698.838 62.24 698.71 62.752L697.654 66.592C697.334 67.808 696.534 68.416 695.254 68.416H687.766C687.254 68.416 686.838 68.256 686.518 67.936C686.262 67.552 686.198 67.104 686.326 66.592L687.382 62.752C687.702 61.536 688.502 60.928 689.782 60.928H697.27ZM702.838 68.416H706.582C707.094 68.416 707.478 68.608 707.734 68.992C708.054 69.376 708.15 69.824 708.022 70.336L706.966 74.08C706.838 74.592 706.518 75.04 706.006 75.424C705.558 75.808 705.078 76 704.566 76H700.822C700.31 76 699.894 75.808 699.574 75.424C699.318 75.04 699.254 74.592 699.382 74.08L700.438 70.336C700.566 69.824 700.854 69.376 701.302 68.992C701.814 68.608 702.326 68.416 702.838 68.416ZM721.078 6.112L722.134 2.368C722.198 1.856 722.454 1.408 722.902 1.024C723.414 0.639996 723.926 0.447994 724.438 0.447994H809.398L795.19 53.344H749.878L743.83 76H715.51C714.998 76 714.614 75.808 714.358 75.424C714.102 75.04 714.038 74.592 714.166 74.08L715.222 70.336C715.35 69.824 715.254 69.376 714.934 68.992C714.678 68.608 714.294 68.416 713.782 68.416C713.27 68.416 712.854 68.256 712.534 67.936C712.278 67.552 712.214 67.104 712.342 66.592L713.398 62.752C713.718 61.536 713.27 60.928 712.054 60.928H708.214C707.702 60.928 707.318 60.736 707.062 60.352C706.806 59.968 706.742 59.52 706.87 59.008L707.926 55.264C708.054 54.752 708.342 54.304 708.79 53.92C709.238 53.536 709.718 53.344 710.23 53.344H721.558C722.07 53.344 722.582 53.152 723.094 52.768C723.606 52.384 723.926 51.936 724.054 51.424L725.014 47.68C725.142 47.168 725.046 46.72 724.726 46.336C724.47 45.952 724.086 45.76 723.574 45.76H712.246C711.798 45.76 711.414 45.6 711.094 45.28C710.838 44.896 710.774 44.448 710.902 43.936L711.958 40.096C712.278 38.88 713.046 38.272 714.262 38.272H725.59C726.102 38.272 726.614 38.08 727.126 37.696C727.638 37.312 727.958 36.864 728.086 36.352L729.046 32.608C729.174 32.096 729.078 31.648 728.758 31.264C728.502 30.88 728.118 30.688 727.606 30.688C727.094 30.688 726.71 30.496 726.454 30.112C726.262 29.728 726.23 29.28 726.358 28.768L727.318 25.024C727.446 24.512 727.382 24.064 727.126 23.68C726.87 23.296 726.486 23.104 725.974 23.104H710.902C710.39 23.104 709.974 22.944 709.654 22.624C709.398 22.24 709.334 21.792 709.462 21.28L710.422 17.44C710.742 16.224 711.574 15.616 712.918 15.616H724.246C725.462 15.616 726.23 14.976 726.55 13.696L727.51 9.952C727.83 8.672 727.414 8.032 726.262 8.032H722.422C721.91 8.032 721.526 7.84 721.27 7.456C721.014 7.072 720.95 6.624 721.078 6.112ZM771.094 30.688L773.206 23.104H758.038L755.926 30.688H771.094ZM898.459 0.447994L889.339 34.432L879.739 42.016L885.307 49.6L878.203 76H847.963L851.995 60.928L846.427 53.344H838.939L832.891 76H802.651L822.907 0.447994H898.459ZM860.443 30.688L862.555 23.104H847.099L844.987 30.688H860.443ZM891.781 76L912.037 0.447994H987.589L967.333 76H891.781ZM936.229 23.104L928.069 53.344H943.141L951.301 23.104H936.229Z" fill="white"/>
</svg>
